Coordinates
version=1
nRows=17
nColumns=40
inDegrees=yes

Units are S.I. units (second, meters, Newtons, ...)
Angles are in degrees.

endheader
time	pelvis_tilt	pelvis_list	pelvis_rotation	pelvis_tx	pelvis_ty	pelvis_tz	hip_flexion_r	hip_adduction_r	hip_rotation_r	knee_angle_r	knee_angle_r_beta	ankle_angle_r	subtalar_angle_r	mtp_angle_r	hip_flexion_l	hip_adduction_l	hip_rotation_l	knee_angle_l	knee_angle_l_beta	ankle_angle_l	subtalar_angle_l	mtp_angle_l	lumbar_extension	lumbar_bending	lumbar_rotation	arm_flex_r	arm_add_r	arm_rot_r	elbow_flex_r	pro_sup_r	wrist_flex_r	wrist_dev_r	arm_flex_l	arm_add_l	arm_rot_l	elbow_flex_l	pro_sup_l	wrist_flex_l	wrist_dev_l
      0.26000000	     -3.63939405	      2.10739006	     -2.49949347	     -0.52559358	      0.87364543	      1.07058281	      7.99201023	     -9.64428694	     -5.36655689	    -63.75961887	     -1.11281528	    -14.49570791	    -17.82386071	     21.97255091	     28.66675998	     -2.10122677	      9.87217003	    -39.40714779	     -0.68778448	     10.43479811	     15.77874408	     10.08602695	     -4.06432291	     -6.52178052	     -0.03996788	     -5.74479194	     -7.88487426	    -12.78509094	     56.32072832	     89.95437384	      0.00000000	      0.00000000	     -9.89550436	      9.70480583	     25.94500332	     17.60139785	     89.95437384	      0.00000000	      0.00000000
      0.27000000	     -3.48211742	      1.83382516	     -2.11046770	     -0.51205179	      0.87572834	      1.06953026	      9.61361023	     -9.21136519	     -5.78592967	    -65.14530533	     -1.13700007	    -13.13565927	    -17.96975586	     21.39655483	     27.30077290	     -1.98922949	      9.78044242	    -39.05857117	     -0.68170067	     10.81834239	     15.31777323	      9.78562889	     -4.33489806	     -6.24467499	     -0.49503424	     -5.62647952	     -7.76231975	    -12.39601042	     54.11950624	     89.95437384	      0.00000000	      0.00000000	     -9.07220550	      9.64452058	     25.53924797	     18.16112314	     89.95437384	      0.00000000	      0.00000000
      0.28000000	     -3.41970122	      1.55514913	     -1.69711536	     -0.49860831	      0.87766686	      1.06838188	     11.32256792	     -8.77770798	     -6.30379274	    -66.20660819	     -1.15552330	    -11.49209365	    -17.84069876	     20.76095903	     26.01865001	     -1.88061388	      9.61550501	    -38.70098972	     -0.67545969	     11.36103282	     14.80771700	      9.42082140	     -4.49093075	     -5.95021354	     -0.97476288	     -5.56677204	     -7.67509514	    -11.99952766	     51.90227268	     89.95437384	      0.00000000	      0.00000000	     -8.31745615	      9.55505344	     25.05263854	     18.99995976	     89.95437384	      0.00000000	      0.00000000
      0.29000000	     -3.44020610	      1.21944556	     -1.19852678	     -0.48527594	      0.87940661	      1.06709537	     13.10725109	     -8.29150544	     -6.87461166	    -67.04484783	     -1.17015334	     -9.50203357	    -17.49903043	     20.02541108	     24.85484016	     -1.76670850	      9.31189478	    -38.32288648	     -0.66886055	     11.85494153	     14.34688406	      8.97950145	     -4.55917688	     -5.56520048	     -1.52563693	     -5.57045373	     -7.59479885	    -11.71049020	     49.72747616	     89.95437384	      0.00000000	      0.00000000	     -7.71747978	      9.46806782	     24.40788572	     20.20182907	     89.95437384	      0.00000000	      0.00000000
      0.30000000	     -3.51036260	      0.85884634	     -0.56233350	     -0.47222055	      0.88098714	      1.06581117	     14.88714804	     -7.82751812	     -7.67104741	    -67.49917998	     -1.17808293	     -7.82753349	    -16.77122712	     19.34262316	     23.82909408	     -1.70016516	      8.74358963	    -37.99246818	     -0.66309366	     12.24341368	     14.31192560	      8.21874007	     -4.62373782	     -5.17156988	     -2.14147357	     -5.67100893	     -7.47402462	    -11.55459887	     47.70984880	     89.95437384	      0.00000000	      0.00000000	     -7.15194091	      9.52010710	     23.16585353	     21.67066320	     89.95437384	      0.00000000	      0.00000000
      0.31000000	     -3.49177247	      0.55252025	     -0.14581172	     -0.45892213	      0.88274441	      1.06469977	     16.53332406	     -7.34405716	     -8.16772055	    -67.56044718	     -1.17915225	     -6.39119658	    -16.27415859	     18.70236593	     22.59952052	     -1.61221874	      8.36539028	    -37.53933615	     -0.65518501	     12.65265001	     13.97931470	      7.84262759	     -4.70909800	     -4.82815605	     -2.50149823	     -5.73847272	     -7.31429584	    -11.70807594	     45.50027940	     89.95437384	      0.00000000	      0.00000000	     -6.36755467	      9.48944373	     22.55543433	     22.85912936	     89.95437384	      0.00000000	      0.00000000
      0.32000000	     -3.48917415	      0.24645775	      0.35177924	     -0.44571378	      0.88435453	      1.06352666	     18.14316038	     -6.93998408	     -8.82766419	    -67.30969740	     -1.17477584	     -4.91433036	    -15.65810603	     18.02067636	     21.37880791	     -1.52979650	      7.87431169	    -37.07638141	     -0.64710493	     13.10928416	     13.74519767	      7.47411139	     -4.80101357	     -4.49352667	     -2.94805951	     -5.83247662	     -7.16258544	    -11.86937857	     43.31586647	     89.95437384	      0.00000000	      0.00000000	     -5.71297235	      9.50121179	     21.76918701	     24.39794177	     89.95437384	      0.00000000	      0.00000000
      0.33000000	     -3.41083598	     -0.01295905	      0.94450362	     -0.43249749	      0.88584037	      1.06222158	     19.57737219	     -6.70496262	     -9.65215618	    -66.76410185	     -1.16525340	     -3.45924484	    -14.78034471	     17.09799695	     20.06681632	     -1.50832614	      7.38668154	    -36.54594169	     -0.63784701	     13.47145261	     13.56681071	      6.98359886	     -4.96814612	     -4.19852995	     -3.50340832	     -5.95450616	     -7.01212939	    -12.14273522	     41.20265029	     89.95437384	      0.00000000	      0.00000000	     -5.29121876	      9.60344957	     20.54719631	     26.40583462	     89.95437384	      0.00000000	      0.00000000
      0.34000000	     -3.56466299	     -0.22813106	      1.27985160	     -0.41937550	      0.88678821	      1.06096464	     21.32780536	     -6.60898714	    -10.43712479	    -65.97369676	     -1.15145823	     -2.72625325	    -14.40840225	     16.59282416	     19.00551541	     -1.36285601	      7.40787305	    -36.02799677	     -0.62880717	     13.68370435	     13.30562004	      6.74921224	     -4.86451576	     -3.90034900	     -3.62966680	     -6.46669599	     -7.09423098	    -12.28806037	     39.60595312	     89.95437384	      0.00000000	      0.00000000	     -4.44568100	      9.54508192	     20.03096869	     27.82687326	     89.95437384	      0.00000000	      0.00000000
      0.35000000	     -3.12382689	     -0.33320575	      1.97027042	     -0.40591545	      0.88865522	      1.05970017	     22.07250466	     -6.49719566	    -11.14681915	    -64.64576284	     -1.12828141	     -1.24600763	    -14.02642631	     15.89819997	     17.10941904	     -1.54795779	      6.64235825	    -35.16597091	     -0.61376198	     14.14705030	     13.36113521	      6.01439436	     -5.42659432	     -3.79016013	     -4.40655952	     -6.25419799	     -6.80544371	    -12.90288920	     36.97753967	     89.95437384	      0.00000000	      0.00000000	     -4.36781914	     10.05057914	     17.86914114	     30.52508405	     89.95437384	      0.00000000	      0.00000000
      0.36000000	     -3.24260693	     -0.47980363	      2.35241636	     -0.39283466	      0.88931870	      1.05863491	     23.59330741	     -6.30572097	    -11.60323841	    -63.24450196	     -1.10382479	     -0.25534766	    -14.10718734	     15.49418376	     15.98596555	     -1.46839213	      6.54140992	    -34.59817308	     -0.60385204	     14.50120706	     13.08271468	      5.69914512	     -5.33009266	     -3.60323801	     -4.75467657	     -6.41478122	     -6.77500849	    -13.26384677	     34.82387237	     89.95437384	      0.00000000	      0.00000000	     -3.84177189	     10.15769546	     17.24657029	     32.51129618	     89.95437384	      0.00000000	      0.00000000
      0.37000000	     -3.09924585	     -0.58468231	      2.77369598	     -0.37973109	      0.89024606	      1.05774275	     24.68151129	     -6.20197294	    -12.17381628	    -61.47253134	     -1.07289807	      0.70415628	    -14.32579915	     15.16628361	     14.56300160	     -1.36864395	      6.50647231	    -33.98730688	     -0.59319041	     14.75611863	     12.72983799	      5.30508685	     -5.58508700	     -3.49153872	     -5.27764723	     -6.38530461	     -6.69582366	    -13.66050671	     32.60040001	     89.95437384	      0.00000000	      0.00000000	     -3.61856543	     10.47181624	     16.31005711	     35.13630616	     89.95437384	      0.00000000	      0.00000000
      0.38000000	     -3.05285541	     -0.61736688	      3.14715752	     -0.36644451	      0.89081173	      1.05680622	     25.81385977	     -6.13368947	    -12.52803433	    -59.48540567	     -1.03821619	      1.64272988	    -14.59519678	     14.91372246	     13.20768163	     -1.32191004	      6.64461130	    -33.29840533	     -0.58116681	     14.93820848	     12.26011014	      4.97338336	     -5.67809801	     -3.43487250	     -5.69668243	     -6.52633668	     -6.67218983	    -14.07921817	     30.56356692	     89.95437384	      0.00000000	      0.00000000	     -3.29642121	     10.72163823	     15.70685479	     37.54648213	     89.95437384	      0.00000000	      0.00000000
      0.39000000	     -3.02078393	     -0.61485656	      3.51715019	     -0.35315577	      0.89116064	      1.05597688	     26.83884108	     -6.06270650	    -12.75227157	    -57.18668710	     -0.99809598	      2.34143668	    -14.77617842	     14.74000726	     11.87735694	     -1.25597978	      6.91080979	    -32.65435494	     -0.56992601	     15.09199731	     11.86033848	      4.66368264	     -5.75893028	     -3.42377904	     -6.18070700	     -6.68041627	     -6.64514856	    -14.40659256	     28.68541328	     89.95437384	      0.00000000	      0.00000000	     -3.03308682	     11.03586231	     15.16354366	     40.03173684	     89.95437384	      0.00000000	      0.00000000
      0.40000000	     -2.46586256	     -0.60228737	      3.89776940	     -0.33934605	      0.89222986	      1.05519940	     27.04198152	     -6.00244509	    -13.03250572	    -54.45287830	     -0.95038201	      2.90262690	    -15.04481317	     14.78982939	      9.88089625	     -1.09690133	      7.28459261	    -31.87905637	     -0.55639450	     14.89011994	     10.91941798	      3.88981151	     -6.41536016	     -3.39331499	     -6.62714026	     -6.81714791	     -6.60591468	    -14.97180649	     26.89006040	     89.95437384	      0.00000000	      0.00000000	     -2.78339769	     11.29776196	     14.88230106	     42.71450079	     89.95437384	      0.00000000	      0.00000000
      0.41000000	     -2.54944638	     -0.53597726	      4.18549212	     -0.32601121	      0.89204538	      1.05469393	     28.04830103	     -5.95549548	    -12.99599100	    -51.74936351	     -0.90319678	      3.47480345	    -14.95063926	     14.66236556	      8.71764534	     -1.08098583	      7.45017587	    -31.37005384	     -0.54751073	     15.00957863	     10.40986757	      3.53008709	     -6.34712030	     -3.48221671	     -7.01544200	     -7.10045789	     -6.61754368	    -15.21876861	     25.28550214	     89.95437384	      0.00000000	      0.00000000	     -2.61325531	     11.65561602	     14.48952870	     45.33476863	     89.95437384	      0.00000000	      0.00000000
      0.42000000	     -2.08920419	     -0.52880967	      4.56288744	     -0.31207285	      0.89268971	      1.05416812	     28.13238449	     -5.86242622	    -13.06816258	    -48.56302994	     -0.84758477	      3.69571048	    -14.88858465	     14.87469584	      6.80844580	     -0.84700996	      7.88856801	    -30.58119611	     -0.53374256	     14.79960252	      9.50788387	      2.71487682	     -6.86935758	     -3.45743006	     -7.50418142	     -7.33860638	     -6.57910383	    -15.78980405	     23.84337267	     89.95437384	      0.00000000	      0.00000000	     -2.37495259	     11.91541362	     14.50456093	     47.90998350	     89.95437384	      0.00000000	      0.00000000
